<?xml version="1.0" standalone="no"?><svg xmlns="http://www.w3.org/2000/svg" viewBox="0 0 1440 320"><path fill="#fffff" fill-opacity="1" d="M0,288L34.3,288C68.6,288,137,288,206,266.7C274.3,245,343,203,411,208C480,213,549,267,617,266.7C685.7,267,754,213,823,170.7C891.4,128,960,96,1029,106.7C1097.1,117,1166,171,1234,192C1302.9,213,1371,203,1406,197.3L1440,192L1440,320L1405.7,320C1371.4,320,1303,320,1234,320C1165.7,320,1097,320,1029,320C960,320,891,320,823,320C754.3,320,686,320,617,320C548.6,320,480,320,411,320C342.9,320,274,320,206,320C137.1,320,69,320,34,320L0,320Z"></path></svg>